<?xml version="1.0" standalone="no"?>
<!DOCTYPE svg PUBLIC "-//W3C//DTD SVG 20010904//EN"
 "http://www.w3.org/TR/2001/REC-SVG-20010904/DTD/svg10.dtd">
<svg version="1.0" xmlns="http://www.w3.org/2000/svg"
 width="2243.000000pt" height="2243.000000pt" viewBox="0 0 2243.000000 2243.000000"
 preserveAspectRatio="xMidYMid meet">
<metadata>
Created by potrace 1.14, written by Peter Selinger 2001-2017
</metadata>
<g transform="translate(0.000000,2243.000000) scale(0.100000,-0.100000)"
fill="#000000" stroke="none">
<path d="M16809 14737 c-20 -13 -39 -37 -45 -57 -9 -25 -12 -355 -12 -1182 0
-819 -3 -1156 -11 -1181 -21 -62 -86 -107 -156 -107 -34 0 -85 15 -95 28 -3 4
-30 26 -60 48 -203 153 -452 267 -715 329 -206 48 -324 60 -590 60 -234 0
-302 -5 -465 -36 -30 -6 -68 -13 -85 -16 -65 -11 -265 -73 -363 -112 -281
-112 -514 -264 -732 -478 -343 -336 -564 -757 -663 -1263 -40 -204 -52 -331
-51 -570 1 -344 43 -616 141 -910 212 -637 664 -1146 1248 -1407 98 -44 312
-119 366 -128 19 -3 48 -10 64 -15 38 -11 191 -37 275 -46 128 -15 527 -8 626
10 10 2 53 9 94 16 303 48 623 183 853 360 82 62 101 71 148 72 103 1 185 -92
170 -194 -2 -15 30 -78 55 -107 56 -67 73 -70 431 -71 207 0 338 4 366 11 53
13 112 65 134 117 13 32 15 418 15 3378 0 3102 -1 3345 -17 3371 -21 37 -69
68 -134 87 -42 12 -118 15 -404 16 -353 0 -353 0 -388 -23z m-1394 -2991 c483
-65 854 -299 1097 -692 85 -137 171 -351 194 -479 3 -16 10 -50 15 -74 38
-171 30 -482 -18 -681 -128 -538 -472 -942 -958 -1125 -67 -25 -206 -60 -275
-70 -25 -3 -58 -8 -75 -11 -70 -12 -328 -4 -408 12 -12 2 -33 6 -47 9 -14 3
-35 7 -48 9 -136 28 -368 135 -497 231 -143 105 -291 267 -378 411 -82 136
-181 372 -200 474 -3 14 -12 59 -21 101 -34 166 -40 471 -12 614 2 11 7 40 11
65 8 52 54 230 63 245 4 6 7 12 8 15 0 3 6 18 12 33 7 16 12 30 12 33 0 14 92
189 132 250 233 361 612 588 1048 630 36 4 66 7 67 8 6 5 233 -2 278 -8z"/>
<path d="M2208 12675 c-2 -1 -30 -6 -63 -9 -172 -19 -458 -86 -560 -131 -16
-7 -61 -25 -98 -39 -100 -38 -280 -134 -393 -209 -514 -340 -880 -879 -1017
-1497 -14 -63 -28 -133 -32 -155 -3 -23 -7 -50 -9 -62 -3 -12 -8 -53 -11 -90
-4 -37 -9 -79 -11 -93 -6 -35 -6 -385 0 -440 3 -25 8 -72 11 -105 31 -310 132
-643 277 -915 114 -215 237 -380 417 -561 260 -259 559 -443 912 -560 80 -26
157 -50 170 -53 192 -39 262 -52 359 -62 84 -9 455 -12 508 -4 26 4 74 10 107
14 33 3 71 8 85 11 14 3 39 7 55 10 32 4 45 7 115 24 25 7 56 14 69 17 24 5
181 58 216 72 105 45 288 145 364 199 160 116 185 128 251 110 80 -21 114 -67
129 -173 13 -86 46 -135 115 -169 l52 -26 331 1 c372 1 387 3 448 71 18 21 38
53 43 72 12 44 14 4459 1 4507 -16 64 -87 132 -152 146 -12 3 -169 5 -349 5
-324 1 -327 1 -374 -22 -26 -13 -60 -41 -75 -63 -28 -37 -35 -59 -44 -139 -15
-131 -160 -189 -268 -108 -83 62 -234 159 -307 198 -199 106 -477 186 -750
219 -56 7 -516 15 -522 9z m507 -929 c28 -3 61 -8 75 -11 14 -3 41 -7 60 -10
50 -8 180 -44 215 -60 17 -7 41 -16 55 -20 29 -9 182 -87 225 -115 17 -11 37
-23 45 -27 25 -11 162 -125 215 -179 230 -232 378 -532 430 -874 14 -86 21
-347 11 -395 -2 -11 -7 -51 -11 -90 -4 -38 -8 -72 -10 -76 -2 -3 -6 -16 -9
-30 -38 -198 -126 -413 -238 -581 -80 -119 -91 -133 -214 -254 -345 -342 -806
-477 -1330 -389 -45 7 -218 56 -253 71 -175 75 -266 127 -386 220 -305 235
-516 609 -572 1009 -16 119 -9 434 12 529 3 12 7 33 10 49 12 64 17 84 51 185
136 407 422 735 798 914 143 68 345 124 491 135 39 2 71 6 72 7 5 5 211 -2
258 -8z"/>
<path d="M20728 12675 c-1 -1 -40 -6 -85 -9 -45 -4 -91 -9 -103 -11 -12 -2
-48 -7 -79 -11 -31 -3 -58 -8 -61 -9 -3 -2 -26 -6 -50 -10 -25 -3 -99 -20
-165 -36 -66 -17 -127 -32 -135 -34 -35 -7 -231 -79 -310 -112 -100 -43 -233
-112 -308 -159 -29 -19 -55 -34 -58 -34 -4 0 -53 -35 -109 -77 -6 -5 -28 -21
-50 -37 -140 -103 -312 -277 -435 -441 -254 -340 -406 -742 -457 -1210 -15
-143 -8 -563 12 -666 5 -27 16 -94 19 -124 2 -11 6 -29 9 -40 3 -11 9 -36 12
-55 3 -19 11 -53 16 -75 6 -22 12 -47 14 -55 9 -46 74 -229 112 -318 156 -367
427 -715 727 -934 28 -21 56 -41 61 -46 22 -18 153 -101 220 -138 336 -189
725 -302 1170 -341 158 -14 520 -8 655 11 14 2 50 6 80 10 30 4 62 9 70 11 8
2 31 7 50 10 19 3 58 10 85 15 28 6 59 12 70 14 124 24 491 137 591 181 90 40
141 137 122 234 -5 25 -10 60 -13 76 -8 60 -16 110 -20 125 -2 8 -7 35 -10 60
-3 25 -10 70 -15 100 -6 30 -13 75 -16 100 -15 120 -90 200 -194 208 -45 3
-76 -3 -172 -36 -113 -40 -353 -104 -432 -116 -21 -4 -48 -8 -60 -11 -40 -9
-81 -15 -131 -21 -27 -2 -60 -7 -73 -10 -72 -15 -336 -22 -477 -11 -176 14
-404 63 -515 112 -3 2 -16 6 -30 11 -14 4 -70 30 -125 57 -389 194 -650 515
-768 947 -68 246 -70 595 -6 834 6 23 12 48 14 56 2 8 15 49 30 90 106 292
315 548 585 718 62 39 253 129 330 155 111 37 206 61 295 73 22 3 46 7 54 10
68 23 488 22 666 -1 45 -6 114 -16 138 -21 12 -2 39 -6 62 -9 74 -11 309 -73
415 -111 123 -43 186 -47 248 -15 71 36 103 95 117 216 12 96 14 120 21 180 3
33 7 67 9 75 5 26 15 132 20 193 6 92 -38 169 -120 210 -85 42 -420 150 -538
172 -12 3 -56 11 -97 20 -84 16 -130 24 -175 30 -16 2 -50 7 -75 10 -25 4 -63
9 -85 11 -46 6 -542 14 -547 9z"/>
<path d="M5620 12579 c-124 -13 -203 -102 -195 -219 2 -25 48 -200 103 -390
55 -190 148 -511 207 -715 59 -203 170 -588 247 -855 77 -267 143 -498 148
-515 11 -42 299 -1044 311 -1080 9 -29 60 -206 101 -350 10 -38 23 -85 29
-102 5 -18 13 -48 18 -65 49 -179 111 -379 124 -405 21 -40 70 -78 122 -93 29
-8 197 -10 590 -8 535 3 551 4 590 24 49 25 91 83 110 149 7 28 25 93 40 145
15 52 33 118 41 145 8 28 16 58 19 69 3 15 106 381 160 571 8 28 23 82 34 120
83 294 113 402 116 415 2 8 26 96 55 195 28 99 53 187 55 195 2 8 27 98 56
200 43 156 75 271 94 340 56 206 66 230 108 267 72 63 182 50 237 -27 17 -24
129 -394 175 -580 2 -8 11 -40 20 -70 32 -110 56 -195 60 -214 2 -10 25 -91
51 -180 25 -89 52 -183 59 -211 7 -27 38 -140 70 -250 44 -156 129 -457 149
-530 21 -78 34 -121 68 -240 22 -77 41 -147 43 -155 13 -58 70 -250 81 -271
20 -39 79 -87 121 -98 50 -14 1095 -15 1142 -1 50 14 97 50 120 90 16 28 89
256 106 330 2 8 33 116 68 240 36 124 93 322 127 440 34 118 93 323 132 455
38 132 71 247 73 255 2 8 36 125 75 260 39 135 73 252 75 260 1 8 24 87 50
175 40 138 73 254 105 370 5 17 23 77 40 135 17 58 38 128 45 155 7 28 39 138
70 245 95 327 256 884 260 901 1 8 18 64 36 125 18 60 32 130 32 155 -1 82
-50 150 -133 186 -50 21 -722 21 -773 -1 -48 -20 -104 -79 -117 -123 -11 -36
-97 -351 -104 -383 -2 -8 -14 -51 -26 -95 -37 -135 -62 -229 -65 -246 -2 -9
-13 -49 -25 -89 -12 -40 -23 -80 -25 -89 -2 -9 -20 -77 -40 -151 -49 -181
-106 -391 -110 -410 -2 -8 -15 -58 -30 -110 -14 -52 -28 -103 -30 -114 -2 -10
-12 -44 -21 -75 -9 -31 -18 -63 -19 -71 -3 -14 -43 -164 -94 -350 -39 -145
-193 -715 -196 -730 -38 -151 -53 -180 -108 -211 -74 -41 -181 -16 -221 52
-13 22 -137 429 -171 562 -3 9 -7 25 -10 35 -2 9 -43 150 -90 312 -48 162 -89
304 -92 315 -3 11 -35 119 -70 240 -35 121 -66 227 -68 235 -2 8 -20 71 -40
140 -20 69 -39 134 -42 145 -8 29 -99 345 -127 440 -13 44 -50 170 -81 280
-90 317 -98 338 -127 377 -16 20 -49 46 -75 59 -45 22 -52 22 -443 22 -294 0
-410 -3 -444 -13 -66 -18 -117 -77 -144 -166 -26 -86 -112 -384 -117 -404 -2
-8 -27 -94 -55 -190 -44 -149 -77 -266 -95 -330 -2 -8 -47 -163 -100 -345 -54
-181 -98 -337 -100 -345 -2 -8 -22 -76 -43 -150 -41 -137 -211 -723 -218 -750
-7 -26 -55 -192 -70 -245 -9 -27 -24 -80 -34 -117 -30 -113 -69 -161 -143
-178 -73 -16 -162 29 -187 94 -10 27 -20 64 -79 286 -16 58 -45 168 -66 245
-56 205 -75 278 -79 295 -2 8 -16 58 -30 110 -15 52 -29 102 -31 110 -2 8 -15
60 -30 115 -14 55 -28 107 -30 115 -11 43 -88 328 -111 410 -14 52 -27 103
-29 113 -2 9 -6 21 -9 25 -3 5 -7 21 -10 36 -3 15 -12 53 -21 84 -10 31 -18
64 -20 72 -3 16 -40 152 -76 280 -12 41 -22 82 -24 90 -2 8 -26 101 -55 205
-28 105 -67 251 -86 324 -20 74 -42 147 -49 161 -19 37 -77 86 -117 99 -36 12
-604 20 -698 10z"/>
</g>
</svg>
